# Blender v2.79 (sub 0) OBJ File: ''
# www.blender.org
mtllib support_beam.mtl
o Box002_Untitled.001
v -1.668276 0.000000 0.381744
v -1.367716 0.000000 0.381744
v -1.771996 0.000000 -0.022536
v -1.263996 0.000000 -0.022536
v -1.668276 3.810000 0.381744
v -1.263996 3.810000 0.278024
v -1.771996 3.810000 -0.022536
v -1.367716 3.810000 -0.126256
v -1.771996 0.000000 0.278024
v -1.263996 0.000000 0.278024
v -1.668276 0.000000 -0.126256
v -1.367716 0.000000 -0.126256
v -1.771996 3.810000 0.278024
v -1.367716 3.810000 0.381744
v -1.668276 3.810000 -0.126256
v -1.263996 3.810000 -0.022536
v -1.355418 3.028953 0.288246
v -1.286768 2.960303 0.288246
v -1.365994 3.039529 0.012016
v -1.276191 2.949727 0.012016
v -0.457392 3.926979 0.288246
v -0.378166 3.847753 0.251370
v -0.467968 3.937555 0.012016
v -0.388742 3.858329 -0.024859
v -1.365994 3.039529 0.251370
v -1.276191 2.949727 0.251370
v -1.355418 3.028953 -0.024859
v -1.286768 2.960303 -0.024859
v -0.467968 3.937555 0.251370
v -0.388742 3.858329 0.288246
v -0.457392 3.926979 -0.024859
v -0.378166 3.847753 0.012016
v 1.091707 2.893875 -0.024859
v 1.073332 2.878457 -0.024859
v 1.131163 2.926983 0.161261
v 1.033876 2.845349 0.161261
v 0.275367 3.866752 -0.024859
v 0.217535 3.818226 0.102125
v 0.314823 3.899860 0.161261
v 0.256992 3.851333 0.288245
v 1.131163 2.926983 0.102125
v 1.033876 2.845349 0.102125
v 1.091707 2.893875 0.288246
v 1.073332 2.878457 0.288246
v 0.314823 3.899860 0.102125
v 0.256992 3.851333 -0.024859
v 0.275367 3.866752 0.288245
v 0.217535 3.818226 0.161261
v 1.113627 2.912269 -0.010750
v 1.126779 2.923305 0.031579
v 1.038260 2.849028 0.031578
v 1.051412 2.860064 -0.010750
v 1.126779 2.923305 0.231808
v 1.113627 2.912269 0.274136
v 1.051412 2.860064 0.274136
v 1.038260 2.849028 0.231808
v 0.310439 3.896181 0.031578
v 0.297287 3.885145 -0.010750
v 0.235072 3.832940 -0.010750
v 0.221920 3.821904 0.031578
v 0.297287 3.885145 0.274136
v 0.310439 3.896181 0.231808
v 0.221920 3.821904 0.231808
v 0.235072 3.832940 0.274136
v 1.342541 -0.143454 0.381744
v 1.704375 -0.109915 0.381744
v 1.270424 -0.150138 -0.053864
v 1.776491 -0.103231 -0.053864
v 1.010478 3.877715 0.381744
v 1.444428 3.917938 0.309352
v 0.938361 3.871031 -0.053864
v 1.372311 3.911253 -0.126256
v 1.270424 -0.150138 0.309352
v 1.776491 -0.103231 0.309352
v 1.342541 -0.143454 -0.126256
v 1.704375 -0.109915 -0.126256
v 0.938361 3.871031 0.309352
v 1.372311 3.911253 0.381744
v 1.010478 3.877715 -0.126256
v 1.444428 3.917938 -0.053864
v -1.915390 4.094907 0.512693
v -1.915390 3.775150 0.512693
v -1.915390 4.125529 -0.218685
v -1.915390 3.744529 -0.218685
v 1.894611 4.094908 0.512693
v 1.894611 3.744529 0.482072
v 1.894611 4.125529 -0.218685
v 1.894611 3.775150 -0.249307
v -1.915390 4.125529 0.482072
v -1.915390 3.744529 0.482072
v -1.915390 4.094907 -0.249307
v -1.915390 3.775150 -0.249307
v 1.894611 4.125529 0.482072
v 1.894611 3.775150 0.512693
v 1.894611 4.094908 -0.249307
v 1.894611 3.744529 -0.218685
vt 0.877009 0.082329
vt 0.920202 0.082329
vt 0.920202 0.155332
vt 0.877009 0.155332
vt 0.932364 0.097234
vt 0.932364 0.140426
vt 0.859361 0.140426
vt 0.859361 0.097234
vt 0.202846 0.650661
vt 0.200631 0.601472
vt 0.824170 0.573400
vt 0.826385 0.622590
vt 0.199549 0.577466
vt 0.197333 0.528276
vt 0.820871 0.500203
vt 0.823088 0.549393
vt 0.196251 0.504268
vt 0.194036 0.455079
vt 0.817575 0.427006
vt 0.819790 0.476195
vt 0.182636 0.427855
vt 0.180777 0.378651
vt 0.804508 0.355081
vt 0.806368 0.404285
vt 0.827467 0.646596
vt 0.203927 0.674668
vt 0.192955 0.431072
vt 0.816493 0.403000
vt 0.917459 0.155332
vt 0.874267 0.155332
vt 0.874267 0.082329
vt 0.917459 0.082329
vt 0.862104 0.140426
vt 0.862104 0.097234
vt 0.935107 0.097234
vt 0.935107 0.140427
vt 0.984383 0.105597
vt 0.984383 0.087346
vt 0.989682 0.089496
vt 0.989682 0.103448
vt 0.951824 0.086838
vt 0.986220 0.087105
vt 0.986077 0.105356
vt 0.951682 0.105088
vt 0.201498 0.761394
vt 0.202175 0.775330
vt 0.019879 0.784185
vt 0.019202 0.770250
vt 0.202451 0.781041
vt 0.204120 0.815397
vt 0.021825 0.824253
vt 0.020156 0.789897
vt 0.204397 0.821108
vt 0.205074 0.835043
vt 0.022779 0.843900
vt 0.022102 0.829964
vt 0.199552 0.721326
vt 0.201221 0.755683
vt 0.018925 0.764538
vt 0.017256 0.730181
vt 0.205352 0.840755
vt 0.023057 0.849611
vt 0.946399 0.102897
vt 0.946508 0.088946
vt 0.991502 0.089296
vt 0.991393 0.103247
vt 0.949986 0.105597
vt 0.949986 0.087346
vt 0.944687 0.103448
vt 0.944687 0.089496
vt 0.989803 0.126425
vt 0.989919 0.114754
vt 0.991906 0.118887
vt 0.991871 0.122334
vt 0.966195 0.112207
vt 0.974693 0.112310
vt 0.974473 0.130559
vt 0.965976 0.130457
vt 0.207319 0.893391
vt 0.207366 0.896838
vt 0.024882 0.899240
vt 0.024836 0.895793
vt 0.207649 0.918159
vt 0.207762 0.926657
vt 0.025279 0.929058
vt 0.025166 0.920560
vt 0.208045 0.947979
vt 0.208091 0.951426
vt 0.025608 0.953825
vt 0.025562 0.950378
vt 0.206926 0.863575
vt 0.207038 0.872072
vt 0.024555 0.874475
vt 0.024443 0.865977
vt 0.207427 0.901423
vt 0.024944 0.903825
vt 0.024775 0.891208
vt 0.207259 0.888806
vt 0.207897 0.936829
vt 0.025414 0.939229
vt 0.208152 0.956011
vt 0.025668 0.958410
vt 0.207514 0.907987
vt 0.025031 0.910389
vt 0.024689 0.884645
vt 0.207172 0.882242
vt 0.207984 0.943393
vt 0.025501 0.945793
vt 0.208238 0.962575
vt 0.025755 0.964974
vt 0.208372 0.972745
vt 0.025889 0.975143
vt 0.947818 0.122835
vt 0.947859 0.119388
vt 0.949936 0.115301
vt 0.949795 0.126971
vt 0.956048 0.112907
vt 0.955848 0.129512
vt 0.984820 0.113254
vt 0.984621 0.129859
vt 0.990873 0.115794
vt 0.990733 0.127464
vt 0.992851 0.119930
vt 0.992810 0.123377
vt 0.983695 0.128831
vt 0.983862 0.112226
vt 0.973550 0.129552
vt 0.973733 0.111302
vt 0.965051 0.129467
vt 0.965235 0.111217
vt 0.954922 0.128543
vt 0.955089 0.111938
vt 0.948864 0.126015
vt 0.948982 0.114344
vt 0.946878 0.121882
vt 0.946913 0.118435
vt 0.995324 0.017106
vt 0.994905 0.069325
vt 0.921904 0.068739
vt 0.922323 0.016520
vt 0.984424 0.081110
vt 0.932230 0.080692
vt 0.932815 0.007657
vt 0.985010 0.008076
vt 0.061807 0.180438
vt 0.060508 0.114651
vt 0.790771 0.092893
vt 0.792069 0.158679
vt 0.060088 0.096113
vt 0.058129 0.030375
vt 0.788392 0.008616
vt 0.790351 0.074354
vt 0.067484 0.348991
vt 0.064866 0.283245
vt 0.795128 0.261488
vt 0.797746 0.327234
vt 0.064183 0.264715
vt 0.062226 0.198976
vt 0.792488 0.177219
vt 0.794446 0.242958
vt 0.068168 0.367520
vt 0.798430 0.345764
vt 0.995330 0.018567
vt 0.994911 0.070786
vt 0.921910 0.070201
vt 0.922329 0.017981
vt 0.984419 0.079649
vt 0.932223 0.079231
vt 0.932810 0.006196
vt 0.985004 0.006614
vt 0.803954 0.061618
vt 0.803954 0.015667
vt 0.913459 0.015667
vt 0.913459 0.061618
vt 0.802933 0.062519
vt 0.912438 0.062519
vt 0.908038 0.066920
vt 0.807334 0.066920
vt 0.916954 0.671325
vt 0.917485 0.717273
vt 0.370006 0.723602
vt 0.369475 0.677654
vt 0.917557 0.723497
vt 0.918720 0.824195
vt 0.371242 0.830523
vt 0.370077 0.729826
vt 0.918792 0.830420
vt 0.919323 0.876369
vt 0.371844 0.882697
vt 0.371313 0.836748
vt 0.919394 0.882594
vt 0.920558 0.983290
vt 0.373079 0.989617
vt 0.371916 0.888921
vt 0.373151 0.995840
vt 0.920630 0.989514
vt 0.802933 0.016568
vt 0.912438 0.016568
vt 0.807334 0.012167
vt 0.908037 0.012167
vt 0.909058 0.066019
vt 0.808354 0.066019
vt 0.808355 0.011267
vt 0.909059 0.011267
vn 0.0000 -1.0000 0.0000
vn 0.0000 1.0000 0.0000
vn 0.0000 0.0000 1.0000
vn 1.0000 0.0000 0.0000
vn 0.0000 -0.0000 -1.0000
vn -1.0000 -0.0000 0.0000
vn 0.7071 0.0000 0.7071
vn -0.7071 0.0000 0.7071
vn 0.7071 -0.0000 -0.7071
vn -0.7071 -0.0000 -0.7071
vn -0.7071 -0.7071 -0.0000
vn 0.7071 0.7071 0.0000
vn 0.7071 -0.7071 0.0000
vn -0.7071 0.7071 0.0000
vn 0.6553 -0.6553 0.3759
vn -0.6553 0.6553 0.3759
vn 0.6553 -0.6553 -0.3759
vn -0.6553 0.6553 -0.3759
vn 0.6428 -0.7660 -0.0000
vn -0.6428 0.7660 0.0000
vn 0.1739 0.1459 -0.9739
vn -0.1739 -0.1459 -0.9739
vn -0.7654 -0.6423 -0.0405
vn -0.7654 -0.6423 0.0405
vn -0.1739 -0.1459 0.9739
vn 0.1739 0.1459 0.9739
vn 0.7654 0.6423 0.0405
vn 0.7654 0.6423 -0.0405
vn -0.3388 -0.2843 -0.8969
vn 0.3388 0.2843 -0.8969
vn -0.7635 -0.6407 0.0809
vn 0.3388 0.2843 0.8969
vn -0.7099 -0.5957 -0.3759
vn -0.7635 -0.6407 -0.0809
vn 0.7099 0.5957 -0.3759
vn 0.7635 0.6407 -0.0809
vn -0.7099 -0.5957 0.3759
vn -0.3388 -0.2843 0.8969
vn 0.7099 0.5957 0.3759
vn 0.7635 0.6407 0.0809
vn 0.0923 -0.9957 0.0000
vn -0.0923 0.9957 0.0000
vn 0.9966 0.0823 0.0000
vn -0.9966 -0.0823 0.0000
vn 0.7046 0.0582 0.7073
vn -0.7046 -0.0582 0.7073
vn 0.7046 0.0582 -0.7073
vn -0.7046 -0.0582 -0.7073
vn 0.0000 -0.7071 0.7071
vn -0.0000 0.7071 0.7071
vn 0.0000 -0.7071 -0.7071
vn -0.0000 0.7071 -0.7071
usemtl Material_#2
s 1
f 11/1/1 12/2/1 2/3/1 1/4/1
f 6/5/2 16/6/2 7/7/2 13/8/2
f 1/9/3 2/10/3 14/11/3 5/12/3
f 10/13/4 4/14/4 16/15/4 6/16/4
f 12/17/5 11/18/5 15/19/5 8/20/5
f 3/21/6 9/22/6 13/23/6 7/24/6
f 2/10/7 10/13/7 6/16/7 14/11/7
f 5/12/8 13/25/8 9/26/8 1/9/8
f 4/14/9 12/17/9 8/20/9 16/15/9
f 11/18/10 3/27/10 7/28/10 15/19/10
f 8/29/2 15/30/2 7/7/2 16/6/2
f 5/31/2 14/32/2 6/5/2 13/8/2
f 9/33/1 3/34/1 11/1/1 1/4/1
f 4/35/1 10/36/1 2/3/1 12/2/1
f 25/37/11 26/38/11 18/39/11 17/40/11
f 22/41/12 32/42/12 23/43/12 29/44/12
f 17/45/3 18/46/3 30/47/3 21/48/3
f 26/49/13 20/50/13 32/51/13 22/52/13
f 28/53/5 27/54/5 31/55/5 24/56/5
f 19/57/14 25/58/14 29/59/14 23/60/14
f 18/46/15 26/49/15 22/52/15 30/47/15
f 21/48/16 29/59/16 25/58/16 17/45/16
f 20/50/17 28/53/17 24/56/17 32/51/17
f 27/54/18 19/61/18 23/62/18 31/55/18
f 21/63/12 30/64/12 22/41/12 29/44/12
f 24/65/12 31/66/12 23/43/12 32/42/12
f 19/67/11 20/68/11 26/38/11 25/37/11
f 27/69/11 28/70/11 20/68/11 19/67/11
f 49/71/19 52/72/19 34/73/19 33/74/19
f 38/75/20 48/76/20 39/77/20 45/78/20
f 33/79/21 34/80/22 46/81/22 37/82/21
f 42/83/23 36/84/24 48/85/24 38/86/23
f 44/87/25 43/88/26 47/89/26 40/90/25
f 35/91/27 41/92/28 45/93/28 39/94/27
f 34/80/22 52/95/29 59/96/29 46/81/22
f 37/82/21 58/97/30 49/98/30 33/79/21
f 36/84/24 56/99/31 63/100/31 48/85/24
f 43/88/26 54/101/32 61/102/32 47/89/26
f 52/95/33 51/103/33 60/104/33 59/96/33
f 51/103/34 42/83/23 38/86/23 60/104/34
f 58/97/35 57/105/35 50/106/35 49/98/35
f 57/105/36 45/93/28 41/92/28 50/106/36
f 56/99/37 55/107/37 64/108/37 63/100/37
f 55/107/38 44/87/25 40/90/25 64/108/38
f 54/101/39 53/109/39 62/110/39 61/102/39
f 53/109/40 35/111/27 39/112/27 62/110/40
f 37/113/20 46/114/20 59/115/20 58/116/20
f 58/116/20 59/115/20 60/117/20 57/118/20
f 57/118/20 60/117/20 38/75/20 45/78/20
f 63/119/20 62/120/20 39/77/20 48/76/20
f 64/121/20 61/122/20 62/120/20 63/119/20
f 40/123/20 47/124/20 61/122/20 64/121/20
f 50/125/19 51/126/19 52/72/19 49/71/19
f 41/127/19 42/128/19 51/126/19 50/125/19
f 35/129/19 36/130/19 42/128/19 41/127/19
f 53/131/19 56/132/19 36/130/19 35/129/19
f 54/133/19 55/134/19 56/132/19 53/131/19
f 43/135/19 44/136/19 55/134/19 54/133/19
f 75/137/41 76/138/41 66/139/41 65/140/41
f 70/141/42 80/142/42 71/143/42 77/144/42
f 65/145/3 66/146/3 78/147/3 69/148/3
f 74/149/43 68/150/43 80/151/43 70/152/43
f 76/153/5 75/154/5 79/155/5 72/156/5
f 67/157/44 73/158/44 77/159/44 71/160/44
f 66/146/45 74/149/45 70/152/45 78/147/45
f 69/148/46 77/159/46 73/158/46 65/145/46
f 68/161/47 76/153/47 72/156/47 80/162/47
f 75/154/48 67/157/48 71/160/48 79/155/48
f 69/163/42 78/164/42 70/141/42 77/144/42
f 72/165/42 79/166/42 71/143/42 80/142/42
f 68/167/41 74/168/41 66/139/41 76/138/41
f 73/169/41 67/170/41 75/137/41 65/140/41
f 91/171/6 92/172/6 82/173/6 81/174/6
f 85/175/4 95/176/4 87/177/4 93/178/4
f 81/179/3 82/180/3 94/181/3 85/182/3
f 90/183/1 84/184/1 96/185/1 86/186/1
f 92/187/5 91/188/5 95/189/5 88/190/5
f 83/191/2 89/192/2 93/193/2 87/194/2
f 82/180/49 90/183/49 86/186/49 94/181/49
f 85/195/50 93/193/50 89/192/50 81/196/50
f 84/184/51 92/187/51 88/190/51 96/185/51
f 91/188/52 83/191/52 87/194/52 95/189/52
f 94/197/4 88/198/4 95/176/4 85/175/4
f 86/199/4 96/200/4 88/198/4 94/197/4
f 89/201/6 83/202/6 91/171/6 81/174/6
f 84/203/6 90/204/6 82/173/6 92/172/6
